<svg xmlns="http://www.w3.org/2000/svg" width="258.7" height="114.103" viewBox="0 0 258.7 114.103">
  <g id="Popcornopolis_Logo" data-name="Popcornopolis Logo" transform="translate(2 2)">
    <g id="Popcornopolis_Logo-2" data-name="Popcornopolis Logo" transform="translate(0)">
      <g id="Сгруппировать_3" data-name="Сгруппировать 3" transform="translate(0)">
        <g id="Контур_1" data-name="Контур 1" transform="translate(-19.572 -27.761)" fill="#c70020">
          <path d="M 41.23464202880859 138.8641510009766 C 41.14337539672852 138.8641510009766 41.05187606811523 138.8635101318359 40.96040725708008 138.8621826171875 L 37.30727386474609 138.8076171875 C 36.34084320068359 138.7938079833984 35.55404281616211 138.0043029785156 35.55404281616211 137.0476379394531 L 35.5550422668457 133.4077758789062 C 35.55377578735352 131.8484497070312 35.16470718383789 129.6834106445312 34.48760986328125 127.468879699707 C 33.87387466430664 125.4617080688477 33.18247604370117 123.9503402709961 32.84350967407227 123.5473403930664 L 31.24634170532227 121.6469421386719 L 30.67800903320312 120.9707107543945 L 31.2789421081543 120.3232421875 L 37.27251052856445 113.8657760620117 L 37.28447723388672 113.852912902832 L 37.296875 113.840446472168 C 37.48734283447266 113.6491775512695 37.75130844116211 113.5394744873047 38.02107620239258 113.5394744873047 C 38.27729034423828 113.5394744873047 38.51888656616211 113.6332397460938 38.70684814453125 113.804557800293 L 40.89747619628906 115.7573776245117 C 41.05122375488281 115.8938369750977 41.18369674682617 115.997314453125 41.29386520385742 116.0753402709961 C 41.54286193847656 115.7474670410156 41.91960144042969 115.1415023803711 42.33120727539062 114.0920104980469 C 43.31501007080078 111.5929412841797 43.83987426757812 102.442512512207 44.18717575073242 96.38751220703125 L 44.19517517089844 96.24640655517578 L 44.20077514648438 96.14847564697266 C 44.20157241821289 96.13465118408203 44.20256805419922 96.12102508544922 44.20375442504883 96.10753631591797 L 44.20324325561523 96.10751342773438 C 44.22915267944336 95.63361358642578 44.25559616088867 95.15547180175781 44.28245162963867 94.67515563964844 C 43.5875358581543 95.16287994384766 42.83509063720703 95.59517669677734 42.0462760925293 95.95741271972656 C 40.25590896606445 96.77957916259766 38.39224243164062 97.19644165039062 36.50700759887695 97.19644165039062 C 35.38287734985352 97.19644165039062 34.25794219970703 97.04360961914062 33.1634407043457 96.74221038818359 C 30.70760917663574 96.07437896728516 28.46430969238281 94.93760681152344 26.49897575378418 93.36427307128906 C 24.58247566223145 91.830078125 22.96674156188965 89.91094207763672 21.69660949707031 87.66017913818359 C 20.4349422454834 85.42440795898438 19.54104232788086 82.90834045410156 19.03980827331543 80.18187713623047 C 18.53027534484863 77.41034698486328 18.43634223937988 74.46974182128906 18.76064300537109 71.44174194335938 C 20.18597602844238 58.0379753112793 30.06570816040039 43.27184295654297 48.92434310913086 40.50020980834961 C 50.47270965576172 40.27161026000977 52.0467414855957 40.15567779541016 53.60200881958008 40.15567779541016 C 60.84317398071289 40.15567779541016 67.76994323730469 42.64714431762695 73.10637664794922 47.17107772827148 C 79.15680694580078 52.29270935058594 82.75784301757812 59.51177597045898 83.24560546875 67.49797821044922 C 83.26441192626953 67.81337738037109 83.27841186523438 68.13894653320312 83.28850555419922 68.49477386474609 C 83.34710693359375 70.59551239013672 83.16620635986328 72.68251037597656 82.75083923339844 74.69831085205078 C 82.42718505859375 76.26889801025391 81.96028137207031 77.79909515380859 81.35939025878906 79.26058959960938 C 82.30155181884766 79.77394866943359 83.18303680419922 80.40233612060547 83.98776245117188 81.13431549072266 C 84.01241302490234 81.04215240478516 84.03666687011719 80.94880676269531 84.06034088134766 80.85494232177734 C 84.97394561767578 77.21661376953125 88.15507507324219 74.59857940673828 91.79607391357422 74.48944091796875 L 91.79984283447266 74.48934173583984 L 91.80361175537109 74.48927307128906 C 91.82474517822266 74.48877716064453 91.84580993652344 74.48854064941406 91.86690521240234 74.48854064941406 C 92.08094787597656 74.48854064941406 92.27744293212891 74.51232147216797 92.45706939697266 74.54013061523438 C 94.63842010498047 72.65068817138672 97.17723083496094 71.61550903320312 99.65264129638672 71.61550903320312 C 100.9631195068359 71.61550903320312 102.2272644042969 71.899169921875 103.4101333618164 72.45866394042969 C 103.712043762207 72.59970092773438 104.0117263793945 72.76294708251953 104.3203811645508 72.9547119140625 C 104.7056655883789 72.09149932861328 105.1096343994141 71.31906890869141 105.5225448608398 70.65650939941406 C 108.2139739990234 66.32227325439453 112.4076385498047 63.08114242553711 116.466178894043 62.19927597045898 C 117.16357421875 62.04690933227539 117.8713760375977 61.96950912475586 118.5687408447266 61.96950912475586 C 120.1397171020508 61.96950912475586 121.6480331420898 62.35547256469727 122.9835205078125 63.09294891357422 C 124.0608520507812 61.68390274047852 125.2857437133789 60.48776245117188 126.6354064941406 59.5277099609375 C 127.6168670654297 58.03336334228516 128.9724426269531 56.89903259277344 130.5670776367188 56.240478515625 C 131.0067443847656 56.05841064453125 132.2025146484375 55.63407516479492 133.7879028320312 55.63407516479492 C 134.88818359375 55.63407516479492 135.9709777832031 55.83454513549805 137.0103759765625 56.23033905029297 C 138.0907592773438 52.80001449584961 140.4880523681641 50.41025161743164 143.4607086181641 49.81660842895508 C 143.9252014160156 49.72491073608398 144.3945465087891 49.67864227294922 144.8578491210938 49.67864227294922 C 147.6180114746094 49.67864227294922 150.0650482177734 51.28601455688477 151.2945861816406 53.88959503173828 C 152.5045776367188 53.95436096191406 153.6271820068359 54.23453140258789 154.6460113525391 54.72575378417969 C 156.1719818115234 53.19169616699219 157.6683197021484 52.05755233764648 159.1012420654297 51.3499755859375 L 159.1046142578125 51.34830856323242 L 159.1079711914062 51.34667587280273 C 160.2505798339844 50.79307556152344 161.4444122314453 50.51237487792969 162.6563720703125 50.51237487792969 C 163.7616271972656 50.51237487792969 164.8605499267578 50.75595474243164 165.8674621582031 51.2207145690918 C 166.6805419921875 50.69218826293945 167.5013580322266 50.25394058227539 168.3139038085938 49.91481018066406 C 169.7196044921875 49.3228759765625 171.1437683105469 49.02210998535156 172.5439453125 49.02210998535156 C 174.6202087402344 49.02210998535156 176.5073699951172 49.6878776550293 178.0014038085938 50.9473762512207 C 178.5221405029297 51.38755798339844 178.9835968017578 51.90041351318359 179.3814239501953 52.48011016845703 C 179.8423004150391 52.08223342895508 180.3289947509766 51.71030807495117 180.8376007080078 51.36751174926758 C 181.4503784179688 50.32761001586914 182.1328887939453 49.54697418212891 182.9189147949219 48.98577499389648 C 183.6653137207031 48.45187759399414 185.2484741210938 47.55537796020508 187.4571075439453 47.55537796020508 C 189.1720733642578 47.55537796020508 190.935302734375 48.09047698974609 192.6977691650391 49.14587783813477 C 194.0149841308594 49.93314361572266 195.1774749755859 51.00515747070312 196.164794921875 52.34138488769531 C 196.3891296386719 52.09381484985352 196.6086273193359 51.82685470581055 196.7999420166016 51.54777526855469 C 197.5762786865234 50.41544342041016 198.5984497070312 49.48751068115234 199.7560119628906 48.86420822143555 C 200.8914794921875 48.25284194946289 202.162109375 47.9296760559082 203.4305419921875 47.9296760559082 C 204.2640228271484 47.9296760559082 205.0848693847656 48.06515502929688 205.8764495849609 48.33290481567383 C 207.7647857666016 47.33390045166016 209.4705810546875 47.11667633056641 210.5961761474609 47.11667633056641 C 211.0212097167969 47.11667633056641 211.4400024414062 47.14647674560547 211.8409118652344 47.2052116394043 C 214.0758514404297 47.53288269042969 216.070068359375 48.6928596496582 217.560791015625 50.5098762512207 C 218.466064453125 49.65370941162109 219.4580535888672 48.94266891479492 220.5219116210938 48.38822555541992 C 221.3734130859375 47.31191253662109 222.2790222167969 46.56195068359375 223.2849578857422 46.09904479980469 C 224.2705688476562 45.63244247436523 225.4424743652344 45.38584518432617 226.6744079589844 45.38584518432617 C 228.7738647460938 45.38584518432617 230.927490234375 46.07336807250977 232.6465301513672 47.28278350830078 C 233.0927124023438 45.04978942871094 234.3105010986328 42.1431770324707 234.4564056396484 41.79927444458008 C 234.7145538330078 41.07874298095703 235.6062774658203 38.66828155517578 236.8889465332031 36.03374481201172 C 238.3594818115234 33.01330947875977 239.800048828125 30.81171035766602 241.1706085205078 29.49011039733887 L 241.4611358642578 29.20997619628906 L 241.5125579833984 29.20997619628906 C 243.5471954345703 27.60621643066406 245.6788635253906 26.76067733764648 247.6966094970703 26.76067733764648 C 248.5858459472656 26.76067733764648 249.4437103271484 26.92781066894531 250.2464447021484 27.25744247436523 C 251.5066528320312 27.77200508117676 252.5865020751953 28.65445899963379 253.377197265625 29.81455612182617 C 253.9821166992188 29.66328811645508 254.6028137207031 29.58657646179199 255.2222137451172 29.58657646179199 C 256.7261352539062 29.58657646179199 258.1662292480469 30.02984428405762 259.3868408203125 30.86850929260254 C 260.0458984375 31.32276725769043 260.6264343261719 31.90674018859863 261.1541748046875 32.64737319946289 C 262.2537536621094 32.93986511230469 263.16748046875 33.35333251953125 263.9383544921875 33.90610885620117 C 265.8602294921875 35.28967666625977 267.0229187011719 37.34384155273438 267.213623046875 39.69137573242188 L 267.2141723632812 39.6982421875 L 267.2146301269531 39.70514297485352 L 267.2174987792969 39.74731063842773 C 267.2250366210938 39.85739135742188 267.2335510253906 39.98197174072266 267.2359008789062 40.10979843139648 C 267.2402038574219 40.26070404052734 267.2398376464844 40.41627883911133 267.2348022460938 40.57455062866211 C 271.6264343261719 40.88246536254883 273.5654602050781 43.59726715087891 274.2006225585938 44.76434326171875 C 274.7636108398438 45.80067825317383 275.0790710449219 46.99691009521484 275.1132507324219 48.22441101074219 C 275.1588439941406 49.90764236450195 274.6764221191406 51.61021041870117 273.7549438476562 53.01930999755859 L 273.7483825683594 53.0293083190918 L 273.7416076660156 53.03914260864258 L 273.7356872558594 53.04772186279297 C 273.3468017578125 53.63413619995117 272.873291015625 54.16293334960938 272.3011779785156 54.64785385131836 C 272.94873046875 55.58900451660156 273.5571899414062 56.76377868652344 273.955810546875 58.59891128540039 L 273.9591674804688 58.61434173583984 L 273.9620361328125 58.62987518310547 C 274.1570129394531 59.68740844726562 274.1590270996094 59.70310974121094 274.1634826660156 59.73751068115234 C 274.2121276855469 60.109375 274.2427368164062 60.50327682495117 274.254150390625 60.90641021728516 C 274.267333984375 61.36397552490234 274.2064208984375 61.78670883178711 274.1474609375 62.19547653198242 C 274.1407470703125 62.24217224121094 274.1341247558594 62.28805923461914 274.1277160644531 62.33330535888672 C 274.6365051269531 63.40982437133789 274.9833068847656 64.61348724365234 275.1591796875 65.91397857666016 L 275.1598510742188 65.91907501220703 L 275.1605224609375 65.92420959472656 C 275.218505859375 66.38954162597656 275.2542724609375 66.85540771484375 275.266845703125 67.30887603759766 C 275.32275390625 69.34497833251953 274.9383544921875 71.53201293945312 274.1551818847656 73.63381195068359 C 272.7687377929688 77.3466796875 268.7815856933594 84.29647827148438 257.6524658203125 89.13307952880859 C 241.0368347167969 96.36528015136719 220.462646484375 97.15434265136719 200.5658416748047 97.91748046875 C 185.9642791748047 98.48171234130859 172.1722412109375 99.01467895507812 160.5868682861328 101.9560775756836 C 147.7094879150391 105.2255096435547 139.6544647216797 110.9697952270508 135.2381286621094 120.03271484375 L 134.3626708984375 121.8753433227539 C 134.1135711669922 122.3991088867188 133.6207122802734 122.7680435180664 133.0441131591797 122.8626098632812 L 131.0489807128906 123.1919097900391 C 125.5114059448242 124.1098785400391 119.5251083374023 125.2596740722656 113.2761077880859 127.4380111694336 L 105.0463409423828 130.2918090820312 L 105.0293731689453 130.2977142333984 L 105.01220703125 130.302978515625 C 104.4433746337891 130.4776153564453 104.0436096191406 130.5921173095703 103.6841735839844 130.5921173095703 C 103.0277786254883 130.5921173095703 102.7070083618164 130.2022705078125 102.5995788574219 130.0346374511719 C 102.2001419067383 129.4115447998047 102.4833450317383 128.6715698242188 102.8357086181641 127.9046401977539 L 106.4392395019531 119.9762802124023 C 110.6356430053711 110.696044921875 115.6362457275391 103.4170455932617 121.7259063720703 97.72507476806641 C 124.7639770507812 94.88540649414062 128.1353759765625 92.40794372558594 131.7464141845703 90.36154174804688 C 135.3309478759766 88.33017730712891 139.2936401367188 86.64321136474609 143.5244140625 85.34751129150391 C 151.8511352539062 82.79517364501953 161.3719024658203 81.65694427490234 174.3945465087891 81.65694427490234 C 178.7903900146484 81.65694427490234 183.1993255615234 81.77809906005859 187.3164367675781 81.91036987304688 C 187.6628570556641 81.05673217773438 188.1935119628906 80.30659484863281 188.8753662109375 79.70137023925781 C 187.4320831298828 80.29547119140625 185.9510345458984 80.59568023681641 184.4558410644531 80.59568023681641 C 183.0905456542969 80.59568023681641 181.7552032470703 80.3394775390625 180.4868774414062 79.83424377441406 C 179.3863983154297 79.39350891113281 178.3669891357422 78.76129913330078 177.4461669921875 77.94972229003906 C 175.4060668945312 79.39737701416016 173.4056701660156 80.33165740966797 171.4902038574219 80.73023986816406 C 170.8438110351562 80.86813354492188 170.1938934326172 80.93804168701172 169.558349609375 80.93804168701172 C 168.1410980224609 80.93804168701172 166.7698822021484 80.58592987060547 165.5751800537109 79.91750335693359 C 165.3317260742188 80.45267486572266 164.8274993896484 80.84127807617188 164.2303161621094 80.93514251708984 L 149.1738128662109 83.2882080078125 L 149.1578063964844 83.29071044921875 L 149.1417083740234 83.29270935058594 C 148.7232818603516 83.34427642822266 148.3068389892578 83.37040710449219 147.9039764404297 83.37040710449219 C 146.2815856933594 83.37040710449219 144.8271636962891 82.95880889892578 143.5808563232422 82.14697265625 C 143.2641448974609 81.94551086425781 142.9492797851562 81.70197296142578 142.6436004638672 81.42321014404297 C 142.0481262207031 82.48918151855469 141.4421081542969 83.38237762451172 140.7803039550781 84.17447662353516 C 138.1703491210938 87.29667663574219 134.312744140625 89.16054534912109 130.4610748291016 89.16054534912109 C 129.6995086669922 89.16054534912109 128.9432830810547 89.08666229248047 128.2132720947266 88.94092559814453 C 127.5873641967773 88.822509765625 126.9572296142578 88.63448333740234 126.3034820556641 88.37028503417969 C 124.7596969604492 90.34969329833984 123.017936706543 91.92314147949219 121.1177444458008 93.05344390869141 C 118.9613418579102 94.33614349365234 116.7059783935547 94.98651123046875 114.4142761230469 94.98651123046875 C 114.267951965332 94.98651123046875 114.11962890625 94.98377990722656 113.973503112793 94.97832489013672 C 112.9969635009766 94.94654083251953 112.0315475463867 94.78628540039062 111.0953903198242 94.50116729736328 C 110.1781539916992 95.36540222167969 109.1210403442383 96.13992309570312 107.9428863525391 96.81061553955078 C 106.0069351196289 100.3827056884766 101.6721496582031 104.2384872436523 97.0606689453125 104.8089141845703 L 96.83380889892578 106.8526763916016 C 96.62706756591797 108.7149887084961 96.43090057373047 110.4818878173828 96.3958740234375 110.8001403808594 L 96.3958740234375 110.8006439208984 L 96.38987731933594 110.8552093505859 L 95.66820526123047 117.4107437133789 L 95.61407470703125 117.9025421142578 L 95.19023895263672 118.1578750610352 L 93.20217895507812 119.3555450439453 C 92.21314239501953 119.9525756835938 87.71270751953125 122.3119430541992 86.60560607910156 122.7319412231445 L 86.5938720703125 122.7364120483398 L 86.58203887939453 122.7405776977539 C 85.93170928955078 122.9687805175781 85.25884246826172 123.0844802856445 84.58203887939453 123.0844802856445 C 82.43870544433594 123.0844802856445 80.50314331054688 121.9215469360352 79.53070831298828 120.0494766235352 L 79.49087524414062 119.9728088378906 L 79.46477508544922 119.8904418945312 C 78.95014190673828 118.2655410766602 78.94857788085938 118.2560729980469 78.93344116210938 118.1654739379883 L 78.92957305908203 118.1422729492188 L 78.92677307128906 118.1189117431641 C 78.73171997070312 116.4803848266602 79.25943756103516 114.8118667602539 80.37814331054688 113.5070495605469 C 80.41068267822266 113.3915176391602 80.4534912109375 113.2112884521484 80.50506591796875 112.9324264526367 C 79.64759063720703 113.4970474243164 78.74990081787109 113.9633636474609 77.82087707519531 114.3260116577148 C 76.29200744628906 114.9228439331055 74.71324157714844 115.2254409790039 73.12844085693359 115.2254409790039 C 72.708740234375 115.2254409790039 72.28470611572266 115.2037124633789 71.86811065673828 115.1608123779297 C 68.58840942382812 114.8183746337891 65.66773986816406 113.1584396362305 63.64270782470703 110.4866790771484 C 63.63254928588867 110.4732894897461 63.62239074707031 110.4598388671875 63.61223983764648 110.4463348388672 C 63.45814514160156 113.6007232666016 63.15826797485352 116.3041839599609 62.69814300537109 118.6935119628906 C 62.12567520141602 121.6661758422852 61.32160949707031 124.0812759399414 60.24000930786133 126.0768127441406 C 55.82474136352539 134.2036743164062 48.89770889282227 138.8641510009766 41.23464202880859 138.8641510009766 Z M 204.2677917480469 82.40869903564453 C 206.4398345947266 82.45022583007812 208.4282684326172 82.47044372558594 210.3378143310547 82.47044372558594 C 221.6183471679688 82.47044372558594 236.4759063720703 81.84530639648438 251.3645782470703 76.97041320800781 C 253.5095062255859 76.26746368408203 255.4318084716797 75.40855407714844 257.1063232421875 74.4063720703125 C 256.6940307617188 74.25893402099609 256.2882995605469 74.07865142822266 255.8907165527344 73.86617279052734 C 255.7668914794922 73.96692657470703 255.6343078613281 74.06806182861328 255.4928131103516 74.15987396240234 C 253.6908721923828 75.31671142578125 251.7439727783203 75.92674255371094 249.8585052490234 75.92674255371094 C 248.1795043945312 75.92674255371094 246.5687408447266 75.43852233886719 245.1937408447266 74.51392364501953 C 243.3648986816406 75.70854949951172 241.4878540039062 76.31337738037109 239.6041412353516 76.31337738037109 C 238.9523162841797 76.31337738037109 238.3045043945312 76.23874664306641 237.6787719726562 76.09150695800781 C 235.7193756103516 75.62204742431641 234.03955078125 74.47447204589844 232.7577972412109 72.74399566650391 C 231.6030883789062 73.95848083496094 230.3170318603516 74.93148040771484 228.9218444824219 75.64464569091797 C 227.197509765625 76.52754211425781 225.3847351074219 76.97537994384766 223.5344696044922 76.97537994384766 C 222.1551818847656 76.97537994384766 220.8012390136719 76.7216796875 219.5102386474609 76.22134399414062 C 218.0104370117188 75.64525604248047 216.6715850830078 74.73462677001953 215.5182037353516 73.50760650634766 C 212.8057250976562 76.61959075927734 209.2324676513672 78.34942626953125 205.3432312011719 78.412841796875 C 205.1383361816406 79.17302703857422 204.9219665527344 79.97734069824219 204.7122039794922 80.75714111328125 C 204.55810546875 81.33009338378906 204.4075164794922 81.88987731933594 204.2677917480469 82.40869903564453 Z M 53.9477424621582 59.83391189575195 C 53.73381042480469 59.83391189575195 53.52297592163086 59.83880996704102 53.32107543945312 59.84847640991211 C 46.58890914916992 60.17694473266602 38.95477676391602 64.87554168701172 37.39140701293945 73.22014617919922 C 36.49164199829102 78.02837371826172 38.46374130249023 81.45404052734375 39.71954345703125 82.21954345703125 C 39.796142578125 82.2664794921875 39.9937744140625 82.38764190673828 40.40850830078125 82.38764190673828 C 41.12868499755859 82.38764190673828 42.75127410888672 82.01109313964844 45.62696075439453 79.53718566894531 L 45.82744216918945 78.61331176757812 L 46.0012092590332 77.81037902832031 L 46.00391006469727 77.79784393310547 L 46.00694274902344 77.78537750244141 C 48.0028076171875 69.58563995361328 52.01537704467773 63.24694442749023 57.01574325561523 60.39457702636719 L 57.32220458984375 60.22165679931641 C 56.02585220336914 59.91434860229492 54.83662796020508 59.83391189575195 53.9477424621582 59.83391189575195 Z" stroke="none"/>
          <path d="M 247.6965789794922 27.76068115234375 C 245.7293548583984 27.76068115234375 243.6844482421875 28.70635986328125 241.8657379150391 30.20994567871094 L 241.86474609375 30.20994567871094 C 238.8679809570312 33.09957885742188 236.149169921875 40.03311157226562 235.3881072998047 42.16371154785156 C 235.3881072998047 42.16371154785156 233.8932495117188 45.65774536132812 233.5496063232422 47.91567993164062 C 233.3899078369141 48.96985626220703 233.3141479492188 49.04564666748047 232.3599700927734 48.31287384033203 C 229.8675384521484 46.400634765625 226.2300109863281 45.80832672119141 223.7082824707031 47.00501251220703 C 222.7015686035156 47.46691131591797 221.8768310546875 48.25424194335938 221.1764068603516 49.17604064941406 L 221.1743774414062 49.17807769775391 C 219.8079528808594 49.8582763671875 218.5607452392578 50.81844329833984 217.4670715332031 52.03941345214844 C 217.4580078125 52.04948425292969 217.4448547363281 52.04850006103516 217.4367980957031 52.036376953125 C 216.1026458740234 49.96540832519531 214.0811767578125 48.54434204101562 211.6959533691406 48.19464111328125 C 210.5093383789062 48.02079010009766 208.3918762207031 48.02887725830078 206.0136413574219 49.39940643310547 C 205.9793090820312 49.41860961914062 205.9378967285156 49.42266082763672 205.9014739990234 49.40750885009766 C 202.9532318115234 48.23001098632812 199.5774841308594 49.26496887207031 197.6247406005859 52.11317443847656 C 197.1820068359375 52.75904083251953 196.6170654296875 53.34320831298828 196.0338439941406 53.89100646972656 C 196.0237274169922 53.900146484375 196.0085754394531 53.89810943603516 196.0015106201172 53.88597869873047 C 195.0120086669922 52.27894592285156 193.7516479492188 50.94074249267578 192.1840515136719 50.00380706787109 C 187.7752685546875 47.36386108398438 184.6431121826172 48.98197174072266 183.4999694824219 49.79964447021484 C 182.7015075683594 50.36971282958984 182.0900115966797 51.17420959472656 181.5867004394531 52.07070922851562 C 180.6881713867188 52.65594482421875 179.8826446533203 53.31997680664062 179.1650085449219 54.05477905273438 C 179.1569519042969 54.06385040283203 179.1427612304688 54.06082916259766 179.1377410888672 54.05071258544922 C 178.7021179199219 53.14917755126953 178.1148681640625 52.35270690917969 177.3568420410156 51.71194458007812 C 175.1160736083984 49.8228759765625 171.8818054199219 49.49745941162109 168.6990661621094 50.83767700195312 C 167.7449035644531 51.23587799072266 166.8373413085938 51.75334167480469 165.9671020507812 52.35877990722656 C 165.9489135742188 52.37089538574219 165.9256591796875 52.37195587158203 165.9064331054688 52.36180877685547 C 164.0022277832031 51.29853820800781 161.6967926025391 51.20353698730469 159.5440063476562 52.24661254882812 C 157.8288116455078 53.09357452392578 156.1924743652344 54.52777862548828 154.8421478271484 55.96097564697266 L 154.8299713134766 55.9630126953125 C 153.6312866210938 55.23224639892578 152.1919708251953 54.84811401367188 150.5779113769531 54.87648010253906 C 150.5314483642578 54.753173828125 150.5243377685547 54.61470794677734 150.4718017578125 54.49544525146484 C 149.2508239746094 51.71596527099609 146.5137786865234 50.23328399658203 143.6565399169922 50.79721069335938 C 140.9437713623047 51.33897399902344 138.8162078857422 53.62317657470703 137.8995056152344 56.74327850341797 C 137.7711486816406 57.17990112304688 137.2870330810547 57.4224853515625 136.8584747314453 57.24561309814453 C 134.1527557373047 56.1337890625 131.8079071044922 56.80897521972656 130.9488067626953 57.16474151611328 C 129.4559783935547 57.78128051757812 128.2239074707031 58.86981201171875 127.370849609375 60.2332763671875 C 125.8265075683594 61.30157470703125 124.4286804199219 62.72164154052734 123.2542419433594 64.42067718505859 C 123.2491912841797 64.42874145507812 123.2380523681641 64.43077850341797 123.22998046875 64.42471313476562 C 121.4420013427734 63.16734313964844 119.1163482666016 62.64386749267578 116.6785125732422 63.17647552490234 C 112.8782043457031 64.00224304199219 108.9263153076172 67.07073974609375 106.3712463378906 71.18537902832031 C 105.9416809082031 71.87471008300781 105.5232086181641 72.69237518310547 105.1351470947266 73.58584594726562 C 104.944091796875 74.02446746826172 104.394287109375 74.1943359375 103.9889831542969 73.92947387695312 C 103.6665802001953 73.71824645996094 103.3330383300781 73.52620697021484 102.9843444824219 73.36347961425781 C 99.71260070800781 71.81501007080078 95.876953125 72.72471618652344 92.78013610839844 75.59310913085938 C 92.77407836914062 75.59917449951172 92.76502990722656 75.60221099853516 92.75691223144531 75.60017395019531 C 92.44654846191406 75.55977630615234 92.14225769042969 75.48164367675781 91.82600402832031 75.489013671875 C 88.62203979492188 75.58504486083984 85.83551025390625 77.8914794921875 85.02996826171875 81.09951019287109 C 84.97134399414062 81.33197784423828 84.91171264648438 81.55227661132812 84.85107421875 81.76254272460938 C 84.69140625 82.31233215332031 83.98287963867188 82.50847625732422 83.56544494628906 82.10817718505859 C 82.66694641113281 81.24604034423828 81.65214538574219 80.51934051513672 80.52520751953125 79.95234680175781 C 80.36953735351562 79.87551116943359 80.20077514648438 79.85024261474609 80.0421142578125 79.78150939941406 C 80.80416870117188 78.1259765625 81.38838195800781 76.35520935058594 81.77140808105469 74.49651336669922 C 82.16461181640625 72.58827972412109 82.34651184082031 70.58804321289062 82.28890991210938 68.52317810058594 C 82.27981567382812 68.20277404785156 82.26667785644531 67.88134002685547 82.24748229980469 67.55894470214844 C 81.77647399902344 59.84717559814453 78.29960632324219 52.87727355957031 72.45970153808594 47.93387603759766 C 66.13973999023438 42.57608795166016 57.61433410644531 40.22817230224609 49.06974792480469 41.48957824707031 C 30.742431640625 44.18311309814453 21.13961791992188 58.52717590332031 19.75494384765625 71.54824066162109 C 18.47836303710938 83.46761322021484 23.97366333007812 93.20684051513672 33.42886352539062 95.77810668945312 C 38.45016479492188 97.16079711914062 42.98220825195312 94.87046813964844 45.33413696289062 92.48924255371094 C 45.36444091796875 92.45790863037109 45.3846435546875 92.42557525634766 45.41397094726562 92.3922119140625 C 45.34220886230469 93.63134002685547 45.27146911621094 94.88667297363281 45.20170593261719 96.16217803955078 C 45.20170593261719 96.16213226318359 45.20170593261719 96.162109375 45.20170593261719 96.162109375 C 45.20143127441406 96.162109375 45.185546875 96.44417572021484 45.185546875 96.44417572021484 C 44.81361389160156 102.9289093017578 44.30421447753906 111.8100738525391 43.26214599609375 114.4571380615234 C 42.48997497558594 116.4260101318359 41.75111389160156 117.1385803222656 41.49241638183594 117.276008605957 C 41.48834228515625 117.2780532836914 41.48628234863281 117.2790298461914 41.48127746582031 117.2780456542969 C 41.33474731445312 117.2558135986328 40.89707946777344 117.0940780639648 40.23204040527344 116.5038452148438 L 38.03474426269531 114.5450744628906 C 38.02664184570312 114.5369644165039 38.01345825195312 114.5379791259766 38.00544738769531 114.5460815429688 L 32.01190185546875 121.0035400390625 L 33.60879516601562 122.9036712646484 C 34.57708740234375 124.0548782348633 36.55203247070312 129.6451416015625 36.5550537109375 133.4080505371094 L 36.55404663085938 137.0476379394531 C 36.55404663085938 137.4630737304688 36.89668273925781 137.8016357421875 37.32217407226562 137.8077087402344 L 40.97491455078125 137.8622741699219 C 48.36613464355469 137.9694366455078 55.06732177734375 133.5030822753906 59.36083984375 125.6002807617188 C 61.5247802734375 121.6079406738281 62.38388061523438 115.953010559082 62.64260864257812 109.7522430419922 C 62.67295837402344 109.0063858032227 63.65843200683594 108.7536773681641 64.07884216308594 109.3772735595703 C 64.195068359375 109.5501098632812 64.31536865234375 109.7188720703125 64.43968200683594 109.8826446533203 C 66.29737854003906 112.333610534668 68.96971130371094 113.8527450561523 71.97050476074219 114.1660766601562 C 75.27957153320312 114.5066528320312 78.64529418945312 113.3736419677734 81.44596862792969 110.9721755981445 C 81.58444213867188 110.8549118041992 81.7047119140625 110.7063751220703 81.83914184570312 110.5810394287109 C 81.83610534667969 110.6103439331055 81.77140808105469 111.1258087158203 81.77140808105469 111.1258087158203 C 81.70066833496094 111.7342758178711 81.50257873535156 113.4039764404297 81.26200866699219 114.0174407958984 C 80.24624633789062 115.1232147216797 79.75001525878906 116.5746154785156 79.91976928710938 118.0007095336914 C 79.92483520507812 118.0310440063477 80.41807556152344 119.588508605957 80.41807556152344 119.588508605957 C 81.4964599609375 121.6645355224609 83.95252990722656 122.6034698486328 86.25091552734375 121.7969436645508 C 87.26870727539062 121.4108428955078 91.68653869628906 119.1023712158203 92.68611145019531 118.4989776611328 L 94.67420959472656 117.3012771606445 L 95.3958740234375 110.7457733154297 C 95.3958740234375 110.7407379150391 95.77084350585938 107.3649444580078 96.08821105957031 104.5056457519531 C 96.12664794921875 104.1539154052734 96.40963745117188 103.8729400634766 96.77044677734375 103.8355407714844 C 101.0700378417969 103.3877716064453 105.2341766357422 99.72594451904297 107.0746765136719 96.31377410888672 C 107.0817718505859 96.29964447021484 107.1282806396484 96.20767974853516 107.1868743896484 96.08737945556641 C 108.5877380371094 95.32127380371094 109.8006134033203 94.41567993164062 110.8194122314453 93.37057495117188 C 110.8264770507812 93.36251068115234 110.8365631103516 93.3604736328125 110.8466796875 93.36351013183594 C 111.8483123779297 93.73040771484375 112.9105377197266 93.94364166259766 114.0102386474609 93.97901153564453 C 118.4119110107422 94.14279937744141 122.7155303955078 91.62104034423828 125.9690093994141 87.15267944335938 C 125.9771118164062 87.14254760742188 125.9902038574219 87.13953399658203 126.0013427734375 87.14457702636719 C 126.7603759765625 87.50640869140625 127.5568389892578 87.79950714111328 128.40380859375 87.95924377441406 C 132.5083618164062 88.7808837890625 137.0777740478516 87.04451751708984 140.0129089355469 83.53330993652344 C 140.9680023193359 82.39017486572266 141.7331390380859 81.08534240722656 142.4042816162109 79.72594451904297 C 142.4093170166016 79.71583557128906 142.4234466552734 79.71480560302734 142.4305419921875 79.72390747070312 C 142.9783782958984 80.42131042480469 143.5736694335938 80.95797729492188 144.1214752197266 81.30567932128906 C 145.5506439208984 82.23858642578125 147.2476196289062 82.5185546875 149.0194091796875 82.30020904541016 L 164.0750427246094 79.94727325439453 C 164.3772430419922 79.8997802734375 164.6228485107422 79.68550872802734 164.7036743164062 79.39744567871094 L 164.7097778320312 79.37724304199219 C 164.8451690673828 78.89108276367188 165.42333984375 78.66065979003906 165.8619995117188 78.92747497558594 C 167.4083862304688 79.86437225341797 169.2974243164062 80.17669677734375 171.2864685058594 79.75121307373047 C 173.5353393554688 79.28324127197266 175.6891479492188 78.04814147949219 177.511474609375 76.66044616699219 C 177.5216064453125 76.65337371826172 177.5347442626953 76.65438079833984 177.5428161621094 76.66347503662109 C 178.4969177246094 77.63780975341797 179.6026763916016 78.40290832519531 180.85693359375 78.90524291992188 C 183.6910095214844 80.03421020507812 186.8525390625 79.77243804931641 189.7654113769531 78.16541290283203 C 190.1312866210938 77.96327972412109 190.4749145507812 77.70854187011719 190.8246459960938 77.46697998046875 C 190.4840087890625 78.74958038330078 190.2525787353516 79.61374664306641 190.2050476074219 79.77244567871094 C 190.1959838867188 79.79867553710938 190.1606140136719 79.90987396240234 190.1323089599609 79.99681091308594 C 189.2186126708984 80.59310913085938 188.5545654296875 81.45021057128906 188.1927185058594 82.41544342041016 C 188.0764770507812 82.72370147705078 187.7734985351562 82.92564392089844 187.4367065429688 82.91474151611328 C 171.8272094726562 82.41142272949219 157.0495300292969 82.24767303466797 143.8172454833984 86.30368041992188 C 127.1444702148438 91.40981292724609 115.5566101074219 102.240608215332 107.349609375 120.3900451660156 L 103.7443695068359 128.3221130371094 C 103.05712890625 129.8179473876953 103.4249572753906 129.7442321777344 104.7187042236328 129.3470153808594 L 112.9469451904297 126.4937438964844 C 119.2619018554688 124.2924118041992 125.3009490966797 123.1311111450195 130.8861083984375 122.2052764892578 L 132.8823089599609 121.8757781982422 C 133.135009765625 121.834342956543 133.3512725830078 121.6736450195312 133.4594421386719 121.4462127685547 L 134.3377075195312 119.5976409912109 C 144.32763671875 99.09120941162109 171.6260681152344 98.03501129150391 200.5275115966797 96.918212890625 C 220.3708801269531 96.15714263916016 240.8136138916016 95.37181091308594 257.25390625 88.2159423828125 C 268.0473327636719 83.52520751953125 271.8880615234375 76.84641265869141 273.2181091308594 73.28464508056641 C 273.9630432128906 71.28544616699219 274.31982421875 69.25290679931641 274.2672424316406 67.33657836914062 C 274.2550964355469 66.89994049072266 274.2207946777344 66.47037506103516 274.1681823730469 66.04794311523438 C 273.9994201660156 64.79967498779297 273.6628723144531 63.64947509765625 273.1564636230469 62.62161254882812 C 273.155517578125 62.61550903320312 273.1251831054688 62.56497955322266 273.0958557128906 62.51244354248047 C 273.1564636230469 61.98583984375 273.2696838378906 61.45927429199219 273.2545471191406 60.93470764160156 C 273.2444458007812 60.57791137695312 273.2181091308594 60.22014617919922 273.171630859375 59.86537933349609 C 273.1686706542969 59.84210968017578 272.9786071777344 58.81118011474609 272.9786071777344 58.81118011474609 C 272.5046081542969 56.62904357910156 271.7122192382812 55.47480773925781 270.90869140625 54.44790649414062 C 271.6748046875 53.93044281005859 272.3721313476562 53.29674530029297 272.9068298339844 52.48814392089844 L 272.9179992675781 52.47197723388672 C 273.7507934570312 51.19847869873047 274.153076171875 49.70870971679688 274.1136474609375 48.25224304199219 C 274.0843200683594 47.19907379150391 273.8235473632812 46.16510772705078 273.3222351074219 45.24234008789062 C 272.7066955566406 44.11134338378906 270.9490966796875 41.76548004150391 266.9708862304688 41.56031036376953 C 266.5302429199219 41.53704071044922 266.19873046875 41.17520904541016 266.2260131835938 40.74567413330078 C 266.2380981445312 40.54147338867188 266.2422180175781 40.33734130859375 266.2361450195312 40.13217926025391 C 266.2341003417969 40.01390838623047 266.2250061035156 39.89260864257812 266.2169189453125 39.77234649658203 C 266.0502014160156 37.72061157226562 265.0333862304688 35.92654418945312 263.3556213378906 34.71878051757812 C 262.5267944335938 34.12448120117188 261.5635986328125 33.76260375976562 260.5447692871094 33.52610778808594 L 260.5417785644531 33.52410888671875 C 260.076904296875 32.81153869628906 259.5199584960938 32.1748046875 258.8204956054688 31.69267272949219 C 257.318603515625 30.66075134277344 255.4214782714844 30.33119201660156 253.6102752685547 30.78707885742188 C 253.5789489746094 30.79518127441406 253.5466003417969 30.80424499511719 253.5152130126953 30.81336975097656 C 253.1796875 30.91339111328125 252.8178405761719 30.78807067871094 252.6308746337891 30.49801635742188 C 251.9527130126953 29.4539794921875 251.0076751708984 28.64840698242188 249.8665771484375 28.18247985839844 C 249.1650695800781 27.89442443847656 248.4362487792969 27.76068115234375 247.6965789794922 27.76068115234375 M 40.40849304199219 83.38764190673828 C 39.74378967285156 83.38764190673828 39.36585998535156 83.17567443847656 39.19908142089844 83.07341003417969 C 37.50614929199219 82.04147338867188 35.453369140625 78.14011383056641 36.40850830078125 73.0360107421875 C 38.06707763671875 64.18314361572266 46.14778137207031 59.19727325439453 53.2733154296875 58.849609375 C 54.68922424316406 58.78182983398438 57.24842834472656 58.89408111572266 59.78434753417969 59.98057556152344 L 57.51124572753906 61.26317596435547 C 52.7467041015625 63.98101043701172 48.91004943847656 70.08674621582031 46.97854614257812 78.02187347412109 L 46.53384399414062 80.0736083984375 C 43.44744873046875 82.79010772705078 41.52418518066406 83.38764190673828 40.40849304199219 83.38764190673828 M 239.6041412353516 75.31338500976562 C 241.205322265625 75.31338500976562 243.1472015380859 74.80763244628906 245.2678070068359 73.24520874023438 C 245.4123840332031 73.36550903320312 245.5235443115234 73.53024291992188 245.68017578125 73.6353759765625 C 248.3282623291016 75.46170806884766 251.7949981689453 75.34548187255859 254.9484710693359 73.32100677490234 C 255.2334747314453 73.13607788085938 255.4972381591797 72.88037872314453 255.7742004394531 72.65901184082031 C 255.7812805175781 72.65293121337891 255.7924041748047 72.65193939208984 255.801513671875 72.65697479248047 C 256.6636352539062 73.20377349853516 257.6349792480469 73.61817932128906 258.7265319824219 73.79911041259766 C 259.0337829589844 73.849609375 259.3663024902344 73.84864044189453 259.6937866210938 73.86074066162109 C 257.7370300292969 75.36064147949219 255.1051025390625 76.796875 251.6757507324219 77.9207763671875 C 235.8307800292969 83.10877227783203 219.7543029785156 83.71620941162109 203.9608764648438 83.40290832519531 C 203.4554748535156 83.39277648925781 203.0937194824219 82.92584228515625 203.2210693359375 82.44981384277344 C 203.5808410644531 81.11464691162109 204.0276184082031 79.45101165771484 204.4238433837891 77.98140716552734 C 204.5147705078125 77.641845703125 204.8321075439453 77.41644287109375 205.1919860839844 77.41444396972656 C 209.1610412597656 77.39217376708984 212.7571716308594 75.518310546875 215.3910827636719 72.08390808105469 C 215.3941040039062 72.08187866210938 215.4578094482422 71.97877502441406 215.4891357421875 71.92927551269531 C 216.6413116455078 73.43221282958984 218.1058654785156 74.61071014404297 219.8716125488281 75.28890991210938 C 222.6358642578125 76.36024475097656 225.6933135986328 76.17427062988281 228.4667053222656 74.75421142578125 C 230.1434783935547 73.89714050292969 231.6211395263672 72.641845703125 232.8592834472656 71.11260986328125 C 232.8683776855469 71.10251617431641 232.8845367431641 71.10350799560547 232.8916473388672 71.11567687988281 C 234.0579833984375 73.17347717285156 235.7691040039062 74.60564422607422 237.9077758789062 75.11808013916016 C 238.4159088134766 75.23763275146484 238.9845581054688 75.31338500976562 239.6041412353516 75.31338500976562 M 247.6965789794922 25.76068115234375 C 248.7167663574219 25.76068115234375 249.7024841308594 25.95304870605469 250.6263122558594 26.33238220214844 C 251.8623199462891 26.83708190917969 252.9462280273438 27.6500244140625 253.7985534667969 28.70579528808594 C 254.2696228027344 28.62657165527344 254.7461853027344 28.58657836914062 255.2222137451172 28.58657836914062 C 256.9292602539062 28.58657836914062 258.5652160644531 29.09063720703125 259.953125 30.04428100585938 C 260.6212463378906 30.50482177734375 261.2148132324219 31.07546997070312 261.7543640136719 31.77748107910156 C 262.82275390625 32.09494018554688 263.7332153320312 32.52850341796875 264.5210876464844 33.09344482421875 C 266.6863403320312 34.65214538574219 267.9954833984375 36.96580505371094 268.2103271484375 39.61037445068359 L 268.2149658203125 39.67543792724609 C 272.4620971679688 40.30448150634766 274.4103088378906 43.05771636962891 275.0789489746094 44.28627777099609 C 275.717041015625 45.46087646484375 276.0743103027344 46.81257629394531 276.1128845214844 48.19654083251953 C 276.1639099121094 50.08210754394531 275.6237487792969 51.98867797851562 274.5918884277344 53.56657409667969 L 274.5628051757812 53.60979461669922 C 274.2781372070312 54.03781127929688 273.9548950195312 54.43770599365234 273.5889587402344 54.81359100341797 C 274.1130676269531 55.71435546875 274.5980224609375 56.84436798095703 274.9330444335938 58.38664245605469 L 274.9454650878906 58.44857788085938 C 275.1401977539062 59.50472259521484 275.1463317871094 59.54032135009766 275.1548461914062 59.60678100585938 C 275.2080993652344 60.01371002197266 275.2413940429688 60.44144439697266 275.2537536621094 60.87811279296875 C 275.267578125 61.35774993896484 275.2144470214844 61.79363250732422 275.1591491699219 62.18492126464844 C 275.6426086425781 63.28122711181641 275.9754943847656 64.48816680908203 276.150146484375 65.77997589111328 L 276.15283203125 65.80067443847656 C 276.2147521972656 66.29764556884766 276.2529907226562 66.79570770263672 276.2664794921875 67.28101348876953 C 276.3258056640625 69.44480895996094 275.9197692871094 71.76207733154297 275.0922546386719 73.98297882080078 C 273.6500244140625 77.84517669677734 269.51904296875 85.06630706787109 258.0510864257812 90.05020904541016 C 241.2633056640625 97.35730743408203 220.5934753417969 98.15007781982422 200.6041717529297 98.91674041748047 C 186.0570678710938 99.47887420654297 172.3162536621094 100.0098419189453 160.8329772949219 102.9253082275391 C 148.2638854980469 106.1164627075195 140.4172058105469 111.6899719238281 136.1391448974609 120.4664993286133 L 135.2659149169922 122.3044738769531 C 134.8758697509766 123.1245727539062 134.1059112548828 123.7018432617188 133.2059020996094 123.8494110107422 L 131.2118377685547 124.1785736083984 C 125.7189025878906 125.089111328125 119.7830810546875 126.2287750244141 113.6052703857422 128.3822784423828 L 105.3057098388672 131.2589416503906 C 104.6501770019531 131.4601745605469 104.1831359863281 131.5921020507812 103.6841735839844 131.5921020507812 C 102.87451171875 131.5921020507812 102.1723480224609 131.2211456298828 101.7576751708984 130.5743408203125 C 101.031494140625 129.4414978027344 101.5893249511719 128.2220764160156 101.9250183105469 127.491455078125 L 105.5288391113281 119.5624771118164 C 109.7798767089844 110.1615142822266 114.8551483154297 102.7783050537109 121.0430755615234 96.9945068359375 C 123.8168487548828 94.40185546875 126.8635711669922 92.10540771484375 130.1141967773438 90.15582275390625 C 129.4060974121094 90.13656616210938 128.7042236328125 90.05835723876953 128.0227508544922 89.92264556884766 C 127.5617065429688 89.83518981933594 127.1000671386719 89.71411895751953 126.6316070556641 89.55734252929688 C 125.1265716552734 91.36898803710938 123.4488372802734 92.83037567138672 121.6290130615234 93.91287994384766 C 119.3158111572266 95.28884124755859 116.8884429931641 95.98651123046875 114.4142761230469 95.98651123046875 C 114.2562103271484 95.98651123046875 114.0960083007812 95.98353576660156 113.9380950927734 95.97772216796875 C 113.0665588378906 95.94912719726562 112.2032318115234 95.82669830322266 111.3591003417969 95.61261749267578 C 110.5537414550781 96.3189697265625 109.658447265625 96.96307373046875 108.6830291748047 97.53756713867188 C 107.5942077636719 99.45382690429688 105.9654388427734 101.3019180297852 104.0678405761719 102.7687072753906 C 102.1160125732422 104.2774047851562 100.0272064208984 105.2705078125 97.97067260742188 105.6751098632812 L 97.82771301269531 106.9630432128906 C 97.63050842285156 108.7393341064453 97.44297790527344 110.4282989501953 97.3958740234375 110.8550872802734 L 97.3958740234375 110.8555450439453 L 96.55390930175781 118.503776550293 L 93.71817016601562 120.2121124267578 C 92.6834716796875 120.8367462158203 88.13450622558594 123.2214813232422 86.96028137207031 123.6669082641602 L 86.91311645507812 123.6841430664062 C 86.15611267089844 123.9497756958008 85.37181091308594 124.0844421386719 84.58201599121094 124.0844421386719 C 82.06398010253906 124.0844421386719 79.78837585449219 122.7149810791016 78.64324951171875 120.5104446411133 L 78.56356811523438 120.3570785522461 L 78.51141357421875 120.1923446655273 C 77.97547912597656 118.5000457763672 77.97547912597656 118.5000457763672 77.94711303710938 118.3302154541016 L 77.93380737304688 118.2371063232422 C 77.81268310546875 117.2197265625 77.92837524414062 116.1940612792969 78.258056640625 115.2286224365234 C 78.23355102539062 115.2383422851562 78.20901489257812 115.2480010986328 78.18447875976562 115.2575759887695 C 76.53921508789062 115.8998107910156 74.83807373046875 116.2254486083984 73.12837219238281 116.2254486083984 C 72.67463684082031 116.2254486083984 72.21620178222656 116.2019424438477 71.7657470703125 116.1555786132812 C 69.00442504882812 115.8672332763672 66.47914123535156 114.7198638916016 64.46127319335938 112.8683471679688 C 64.28741455078125 115.0850677490234 64.029052734375 117.0704574584961 63.68006896972656 118.8826141357422 C 63.08798217773438 121.9573440551758 62.25030517578125 124.4664459228516 61.11917114257812 126.5533142089844 C 56.52297973632812 135.01318359375 49.27571105957031 139.8641357421875 41.23464965820312 139.8641357421875 C 41.13847351074219 139.8641357421875 41.04203796386719 139.8634796142578 40.9456787109375 139.8620758056641 L 37.29231262207031 139.8074798583984 C 35.78305053710938 139.7859802246094 34.55404663085938 138.5479125976562 34.55404663085938 137.0476379394531 L 34.5550537109375 133.4075164794922 C 34.55386352539062 131.9631805419922 34.18869018554688 129.9304809570312 33.55303955078125 127.8327102661133 C 32.90328979492188 125.6883163452148 32.26806640625 124.4349365234375 32.07571411132812 124.1880645751953 L 29.34417724609375 120.9378433227539 L 36.58575439453125 113.1373748779297 C 36.9627685546875 112.7574157714844 37.48591613769531 112.5394744873047 38.02104187011719 112.5394744873047 C 38.52702331542969 112.5394744873047 39.00459289550781 112.7242736816406 39.37657165527344 113.0619201660156 L 41.04292297363281 114.5473785400391 C 41.15423583984375 114.3188018798828 41.27455139160156 114.0473175048828 41.40020751953125 113.7269134521484 C 42.31576538085938 111.4012603759766 42.85423278808594 102.1618804931641 43.17816162109375 96.51530456542969 C 42.94340515136719 96.63822937011719 42.70513916015625 96.75526428222656 42.46360778808594 96.86618041992188 C 40.5413818359375 97.74887847900391 38.53730773925781 98.19644165039062 36.50701904296875 98.19644165039062 C 35.293212890625 98.19644165039062 34.07894897460938 98.03153991699219 32.89791870117188 97.70634460449219 C 30.3084716796875 97.00128173828125 27.94525146484375 95.80306243896484 25.8740234375 94.14494323730469 C 23.85736083984375 92.53054046630859 22.15887451171875 90.51410675048828 20.82571411132812 88.15164184570312 C 19.50936889648438 85.81904602050781 18.57760620117188 83.19847869873047 18.0562744140625 80.36267852783203 C 17.529296875 77.49637603759766 17.43173217773438 74.4591064453125 17.76629638671875 71.33527374267578 C 18.54513549804688 64.01120758056641 21.66635131835938 56.90524291992188 26.5548095703125 51.32781219482422 C 29.24581909179688 48.25750732421875 32.41940307617188 45.70447540283203 35.98739624023438 43.73957824707031 C 39.84780883789062 41.61367797851562 44.15147399902344 40.19091033935547 48.77894592285156 39.51084136962891 C 50.37484741210938 39.27524566650391 51.99777221679688 39.15567779541016 53.60134887695312 39.15567779541016 C 61.07980346679688 39.15574645996094 68.23623657226562 41.7314453125 73.75300598144531 46.40830993652344 C 80.01310729980469 51.70741271972656 83.73921203613281 59.17588043212891 84.24374389648438 67.43701171875 C 84.26324462890625 67.76437377929688 84.2777099609375 68.10007476806641 84.28811645507812 68.46640777587891 C 84.348876953125 70.64460754394531 84.16117858886719 72.80887603759766 83.73023986816406 74.900146484375 C 83.453369140625 76.24372863769531 83.07548522949219 77.55908966064453 82.60191345214844 78.82996368408203 C 82.89889526367188 79.01642608642578 83.18934631347656 79.21393585205078 83.47288513183594 79.42221832275391 C 84.83322143554688 75.98199462890625 88.08985900878906 73.60009765625 91.76608276367188 73.48990631103516 L 91.7821044921875 73.48947906494141 C 91.9068603515625 73.48683166503906 92.02890014648438 73.49030303955078 92.14288330078125 73.49797821044922 C 94.42973327636719 71.63275909423828 97.06529235839844 70.61550903320312 99.65264892578125 70.61550903320312 C 101.1102752685547 70.61550903320312 102.5166015625 70.93070220947266 103.8326873779297 71.55229949951172 C 103.8450775146484 71.55809020996094 103.8574066162109 71.56388092041016 103.8697814941406 71.56973266601562 C 104.131591796875 71.0487060546875 104.4004669189453 70.56629943847656 104.6738433837891 70.12760925292969 C 106.0492095947266 67.91277313232422 107.8330688476562 65.92024230957031 109.8309478759766 64.36820983886719 C 111.87744140625 62.77834320068359 114.0984497070312 61.69040679931641 116.2538452148438 61.22207641601562 C 117.0200805664062 61.05464172363281 117.7996826171875 60.96951293945312 118.5687713623047 60.96951293945312 C 120.0184020996094 60.96951293945312 121.4207916259766 61.26652526855469 122.7054748535156 61.83850860595703 C 123.6729125976562 60.67726898193359 124.7437438964844 59.66712188720703 125.9049224853516 58.8214111328125 C 126.9880676269531 57.23588562011719 128.4603576660156 56.02860260009766 130.1853790283203 55.31617736816406 C 130.7994384765625 55.06191253662109 132.0865783691406 54.63407897949219 133.7879028320312 54.63407897949219 C 134.6719207763672 54.63407897949219 135.5453796386719 54.75040435791016 136.3974761962891 54.98091125488281 C 136.9490966796875 53.61724853515625 137.7190856933594 52.40225219726562 138.6602783203125 51.41980743408203 C 139.9501037597656 50.07344055175781 141.5423431396484 49.17994689941406 143.2648468017578 48.83594512939453 C 143.7951354980469 48.73124694824219 144.3296051025391 48.67861175537109 144.8577728271484 48.67861175537109 C 147.8205261230469 48.67861175537109 150.4631500244141 50.29029083251953 151.9299621582031 52.93770599365234 C 152.8069152832031 53.03227996826172 153.6410064697266 53.23360443115234 154.4271087646484 53.54032897949219 C 155.8642120361328 52.16816711425781 157.2833251953125 51.13236999511719 158.6584777832031 50.45334625244141 L 158.6719360351562 50.44674682617188 C 159.9515686035156 49.82674407958984 161.2921142578125 49.51237487792969 162.6563720703125 49.51237487792969 C 163.7218475341797 49.51237487792969 164.7817077636719 49.71232604980469 165.7761993408203 50.09666442871094 C 166.4916381835938 49.66094970703125 167.2123413085938 49.29096221923828 167.9288024902344 48.991943359375 C 169.4590454101562 48.348388671875 171.0117492675781 48.02210998535156 172.5439758300781 48.02210998535156 C 174.8591766357422 48.02210998535156 176.9692077636719 48.76927947998047 178.6459350585938 50.18280792236328 C 178.9656677246094 50.45308685302734 179.2652282714844 50.74689483642578 179.5439453125 51.06333160400391 C 179.7240600585938 50.92699432373047 179.9072265625 50.79420471191406 180.0932312011719 50.66513061523438 C 180.7492370605469 49.59806823730469 181.4866485595703 48.77962493896484 182.3378753662109 48.17191314697266 C 183.1809692382812 47.56884002685547 184.9692993164062 46.55537414550781 187.4571075439453 46.55537414550781 C 189.3555450439453 46.55537414550781 191.2916107177734 47.13827514648438 193.2115173339844 48.28791046142578 C 194.2917175292969 48.93353271484375 195.2742614746094 49.75277709960938 196.1495666503906 50.73609161376953 C 196.9922790527344 49.584228515625 198.0700378417969 48.63628387451172 199.2819519042969 47.98374176025391 C 200.5626068115234 47.29417419433594 201.9971771240234 46.92967987060547 203.4305419921875 46.92967987060547 C 204.2301940917969 46.92967987060547 205.0192108154297 47.03980255126953 205.7862854003906 47.25786590576172 C 207.3303527832031 46.50917816162109 208.9772491455078 46.11667633056641 210.5961761474609 46.11667633056641 C 211.0695495605469 46.11667633056641 211.537109375 46.15000915527344 211.9859008789062 46.21577453613281 C 214.1387329101562 46.53140258789062 216.0870208740234 47.536865234375 217.640869140625 49.10588836669922 C 218.3429718017578 48.52821350097656 219.08837890625 48.0252685546875 219.8716430664062 47.60133361816406 C 220.7841186523438 46.48814392089844 221.7664489746094 45.69768524169922 222.8635864257812 45.19210815429688 C 223.9807434082031 44.66458129882812 225.2980651855469 44.38584136962891 226.6743774414062 44.38584136962891 C 228.5017395019531 44.38584136962891 230.3669281005859 44.86106872558594 232.0014038085938 45.72039794921875 C 232.5512847900391 43.77357482910156 233.3670654296875 41.80851745605469 233.5246124267578 41.43527984619141 C 234.1178131103516 39.78287506103516 236.9923858642578 32.12979125976562 240.4765014648438 28.77024841308594 L 241.0575408935547 28.20994567871094 L 241.1720275878906 28.20994567871094 C 243.3026733398438 26.60502624511719 245.5457305908203 25.76068115234375 247.6965789794922 25.76068115234375 Z M 54.55331420898438 60.84798431396484 C 54.32595825195312 60.83760833740234 54.12249755859375 60.83390808105469 53.94773864746094 60.83390808105469 C 53.74948120117188 60.83390808105469 53.55474853515625 60.83840942382812 53.36900329589844 60.84731292724609 C 47.02957153320312 61.15664672851562 39.84217834472656 65.56924438476562 38.37431335449219 73.40431213378906 C 37.55790710449219 77.76701354980469 39.3536376953125 80.82537841796875 40.24003601074219 81.36567687988281 L 40.24957275390625 81.37144470214844 C 40.263671875 81.37558746337891 40.31291198730469 81.38764190673828 40.40850830078125 81.38764190673828 C 40.76370239257812 81.38764190673828 42.08221435546875 81.20700836181641 44.72152709960938 78.99427032470703 L 45.0352783203125 77.54887390136719 C 46.047607421875 73.38997650146484 47.54611206054688 69.71360778808594 49.4891357421875 66.62184143066406 C 50.98579406738281 64.24037170410156 52.68284606933594 62.30665588378906 54.55331420898438 60.84798431396484 Z M 239.6041412353516 77.31337738037109 C 238.8752136230469 77.31337738037109 238.1503448486328 77.22977447509766 237.4496765136719 77.06491088867188 L 237.4417419433594 77.06301116943359 C 235.6050567626953 76.62293243408203 233.9912567138672 75.65513610839844 232.6800231933594 74.22239685058594 C 231.661376953125 75.15805053710938 230.5564422607422 75.93218231201172 229.3769836425781 76.53504180908203 C 227.5108032226562 77.49057769775391 225.5447082519531 77.97537994384766 223.5344390869141 77.97537994384766 C 222.0331573486328 77.97537994384766 220.5595397949219 77.69966888427734 219.1545104980469 77.15592193603516 L 219.1545104980469 77.15594482421875 C 217.8323974609375 76.64811706542969 216.6276550292969 75.90630340576172 215.5533142089844 74.94046020507812 C 212.937255859375 77.59292602539062 209.6686706542969 79.13693237304688 206.1181945800781 79.38058471679688 C 205.9721984863281 79.92283630371094 205.8234558105469 80.47576141357422 205.6778869628906 81.01690673828125 C 205.6404876708984 81.15592956542969 205.6033020019531 81.29414367675781 205.5664367675781 81.43121337890625 C 207.242431640625 81.45755004882812 208.8151245117188 81.47044372558594 210.3377990722656 81.47044372558594 C 220.8888244628906 81.47044372558594 234.5857849121094 80.92128753662109 248.4659576416016 76.82501983642578 C 247.3108367919922 76.65456390380859 246.2044219970703 76.27175903320312 245.1939849853516 75.6912841796875 C 243.3712921142578 76.76859283447266 241.4965972900391 77.31337738037109 239.6041412353516 77.31337738037109 Z M 179.9963684082031 80.71421051025391 C 179.070068359375 80.3306884765625 178.1987915039062 79.82405853271484 177.3907165527344 79.20011138916016 C 176.5227355957031 79.77470397949219 175.6599731445312 80.26099395751953 174.8056335449219 80.65729522705078 C 176.5421752929688 80.66022491455078 178.2786407470703 80.68143463134766 179.9963684082031 80.71421051025391 Z M 143.0363159179688 82.9857177734375 C 142.9987030029297 82.96172332763672 142.9612579345703 82.93731689453125 142.9237365722656 82.91233062744141 C 142.4838409423828 83.61182403564453 142.0305023193359 84.23780059814453 141.5477142333984 84.81564331054688 C 141.5019378662109 84.87039184570312 141.4558868408203 84.92469787597656 141.4094085693359 84.97872161865234 C 142.0109710693359 84.77495574951172 142.6186981201172 84.57904052734375 143.2315826416016 84.39134216308594 C 143.7879943847656 84.22078704833984 144.3499298095703 84.05637359619141 144.9173736572266 83.89821624755859 C 144.2531280517578 83.67350769042969 143.6250152587891 83.36903381347656 143.0363159179688 82.9857177734375 Z" stroke="none" fill="#fff"/>
        </g>
        <g id="Сгруппировать_1" data-name="Сгруппировать 1" transform="translate(4.559 4.267)">
          <path id="Контур_2" data-name="Контур 2" d="M124.393,79.215c.037-.091.066-.158.1-.245,1.937,5.357,8.169,5.147,11.52,1.144a15.246,15.246,0,0,0,3.11-12.507,13.427,13.427,0,0,0,5.557-5.345c.228.035.442.055.635.066,1.239.068,2.353.919,1.756,2.89-.614,1.966-2.121,5.755-2.261,7.631-.327,4.615,2.563,5.31,5.373,3.68a10.817,10.817,0,0,0,4.369-4.7c.264-.567-.261-1.227-.515-.679a11.02,11.02,0,0,1-2.5,3.138c-1.354.966-2.558.9-2.6-.987-.052-2.3,2.3-6.435,3.615-9.773,1.454-3.7-.806-5.61-4.918-4.188a9.515,9.515,0,0,1-1.869.463,6.014,6.014,0,0,0,0-3.949c-.973-2.209-3.68-1.147-4.232,2.423-.351,2.28.779,3.268,2,3.706a11.291,11.291,0,0,1-3.893,4.185c-.257.157-.5.27-.754.4a11.149,11.149,0,0,0-2.184-4.019c-2.86-3.33-5.73-1.76-6.335.228-3.384,1.682-7.612,7.685-6.3,14.546-4.523,10.127-10.333,9.014-11.136,4.671-.965-5.207.862-10.881,3.077-12.636s3,1.563.031,3.21a6.481,6.481,0,0,1,1.465,4.084c6.425-5.231,3.868-10.5-.435-9.555s-11.042,7.683-9.145,16.109A9.882,9.882,0,0,0,108.5,85a2.411,2.411,0,0,0-.132.56c-.174,2.139-2.549,4.123-4.579,5.177,2.005-6.147.171-12.127-3.336-13.78-2.513-1.189-5.8,1.172-7.272,4.256-.538-2.688-3.652-1.9-4.219.375-1.32,5.21-3.452,8.087-6.189,9.114-.612-3.132-2.157-5.83-4.893-7.21a3.353,3.353,0,0,0-4.811,2.3l-.015-.038c-7.329,3.316-9.749,15.13-5.446,20.8,2.6,3.431,7.074,3.282,10.382.449,3.58-3.071,5.6-9.509,4.982-15.014a6.671,6.671,0,0,0,1.108-.465A11.223,11.223,0,0,0,88.6,86.615c-.686,5.422-2.5,22.124-2.723,23.851-.226,1.8-.446,4.822-1.776,6.049-.289.27-.1.549.182.449.472-.177,4.544-2.262,5.581-2.889.518-4.439,2.57-24.714,3.658-29.148,1.191-4.86,3.043-5.474,4.253-4,1.178,1.437,1.9,7.077.879,11.3-1.8.479-3.668,1.19-4.68,2.439-1.189,1.474-1,4.181,1.57,4.121s5.736-2.77,7-5.11c.256-.468.419-.941.626-1.416,2.32-.97,5.059-2.758,5.967-6.077C112.442,91.238,120.28,89.375,124.393,79.215Zm18.589-21.993c.257-1.4,1.434-1.831,1.845-.637a5.612,5.612,0,0,1-.322,3.259C143.26,59.668,142.694,58.8,142.982,57.222Zm-10.471,5.885c1.235-.075,2.067,1.818,2.324,4.4a3.233,3.233,0,0,1-2-.705C131.277,65.211,131.294,63.19,132.511,63.107Zm-1.917,2.574a4.387,4.387,0,0,0,4.319,3.007,17.912,17.912,0,0,1-2.156,9.41c-1.608,2.63-3.43,2.174-3.962-.821A19.821,19.821,0,0,1,130.593,65.681ZM76.554,86.3a7.318,7.318,0,0,1,1.493,4.623,4.557,4.557,0,0,1-3.467-2.985C73.981,86.476,75.539,85.278,76.554,86.3Zm-1.944,18.463c-.922,1.151-2.7,1.184-3.292-.777-1.142-3.781-.32-10.879,2.1-15.409a5.913,5.913,0,0,0,2.9,3.178,6.015,6.015,0,0,0,1.753.549C78.019,96.843,76.5,102.391,74.611,104.765Zm20.723-7.818c-.772.257-1.056-.373-.712-1.106.571-1.187,2.184-1.793,3.588-2.161A5.049,5.049,0,0,1,95.334,96.947Z" transform="translate(-23.639 -31.739)" fill="#ffebaa" stroke="#ffebaa" stroke-width="0.451"/>
          <path id="Контур_3" data-name="Контур 3" d="M154.776,62.588a24.5,24.5,0,0,1,2.782-2.848c1.125-.8,1.781-.484,1.489,1.066s-3.338,13.478-4.255,15.66l4.692-.849c1.279-4.378,2.686-9.86,3.237-11.3,1.387-3.678,2.483-5.282,4.069-6.121,1.342-.71,2.256.372,1.949,2.244-.356,2.2-2.535,6.733-3.083,9.613-.755,3.889.984,5.44,3.293,4.96,2.988-.631,6.26-3.514,7.377-5.186.384-.579.712-1.117.935-1.494a9.656,9.656,0,0,0,.354,1.738c1.365,4.407,5.085,5.718,8.525,3.827,3.957-2.179,6.171-7.561,6.025-12.383a11.617,11.617,0,0,0,7.149-4.5c-1.63,6.535-5.957,22.9-6.192,23.691a4.508,4.508,0,0,1-.934,1.992,6.175,6.175,0,0,1-1.06.793c-.265.175-.155.476.161.432a53.415,53.415,0,0,1,5.374-.365c1.206-4.38,4.865-18.2,5.433-20.307.557-2.134,1.858-5.762,3.059-6.817s2.947-1.137,3.337.721c.448,2.148-.285,6.513-1.452,9.7-2.179.6-4.068,1.294-4.92,2.318-1.309,1.575-.524,3.31,1.241,3.4,3.783.181,6.636-2.3,8.293-5.7a30.918,30.918,0,0,0,4.6-1.442,8.443,8.443,0,0,0,.4,1.636,5.816,5.816,0,0,0,8.325,3.359c4.164-2.136,6.1-7.549,5.653-12.283a11.372,11.372,0,0,0,4.412-2.795,45.906,45.906,0,0,0-.729,8.638c.184,6.856,4.922,10.143,11.111.359l0,.014c-.78,4.609,2.054,7.161,5.639,4.867,2.492-1.594,4.036-5.63,4.373-6.745.161-.543-.615-1.326-.81-.658a9.339,9.339,0,0,1-2.89,4.541c-.842.656-2.146.4-1.912-1.141.478-3.135,1.638-9.843,2.479-14.937l-4.608.436c-.39,2.237-1.116,6.645-1.8,10.763-3.741,7.048-6.443,6.4-6.679,3.424a61.562,61.562,0,0,1,.624-12.931c3.675-4.418,7.878-12.1,7.908-17.414.022-3.07-2.418-3.166-4.14-1.441-3.232,3.247-6.635,12.16-8.287,20.682-1.384,1.429-3.733,3.234-4.788,3.462a9.518,9.518,0,0,0-2.718-5.541c-2.18-2.024-4.556-1.054-5.015.779-4.367,1.207-6.869,7.182-6.652,11.842a22.8,22.8,0,0,1-3.943,1.26,16.382,16.382,0,0,0,.607-9.793c-1-3.681-5.091-5.416-9.011.148.882-2.33-2.213-4.036-3.874-1.607a14.878,14.878,0,0,1-7.864,5.863,8.627,8.627,0,0,0-3.769-6.579c-3.02-1.806-4.365-.228-4.587,1.289-4.857,2.241-6.706,8.165-6.512,12.529l-.11-.108s-.673.676-1.057,1.152a13.3,13.3,0,0,1-3.436,3.131c-.969.516-2.2.417-2.3-1.219-.188-3.2,2.714-6.986,3.522-11.73.609-3.615-1.7-5.245-4.878-3.922a11.723,11.723,0,0,0-5.544,4.946c.3-3.239-1.381-4.619-3.376-3.637a16.687,16.687,0,0,0-5.373,5.223C154.433,61.629,154.482,63,154.776,62.588Zm51.31,6.4a3.971,3.971,0,0,1-2.71,2.274c-.8.069-1.018-.688-.533-1.3a7.958,7.958,0,0,1,3.639-1.765C206.351,68.468,206.221,68.753,206.086,68.987ZM244.72,34.979c.748-1.338,1.436-1.108,1.473-.208.116,3.257-3.34,10.649-5.876,14.2C241.3,43.542,242.829,38.353,244.72,34.979ZM225.28,53.216c.664.456,1.135,1.907,1.262,3.8a3.8,3.8,0,0,1-2.627-2.656C223.657,53.243,224.518,52.672,225.28,53.216Zm-2.34,1.639a4.829,4.829,0,0,0,3.634,3.128,17.242,17.242,0,0,1-2.5,9.093c-1.289,2.041-3.2,1.568-3.422-.692A22.306,22.306,0,0,1,222.94,54.855Zm-36.461.851c.627.425,1.327,2.237,1.424,4.436a4.475,4.475,0,0,1-2.747-2.884C184.9,56.22,185.6,55.12,186.48,55.707Zm-2.311,2.006a5.879,5.879,0,0,0,3.722,3.61c0,.009,0,.025,0,.033a18.577,18.577,0,0,1-2.943,8.871c-1.257,1.853-3.165,1.5-3.445-1.231A23.011,23.011,0,0,1,184.168,57.713Z" transform="translate(-22.685 -31.982)" fill="#ffebaa" stroke="#ffebaa" stroke-width="0.451"/>
          <path id="Контур_4" data-name="Контур 4" d="M268.034,64.254a4.913,4.913,0,0,0-.763-1.061,6.478,6.478,0,0,0,.255-3.7c-.383-1.724-.906-2.178-1.956-3.543-.7-.906-1.92-2.129-3.111-3.434s-1.057-3.493,1.3-5,4.219.7,1.987,3.174c3.331.432,4.629-5.709-1.4-4.96-1.977.238-4.228,2.059-5.3,3.418-1.951,2.464-2,5.515-.693,7.048,1.727,2.037,2.809,2.344,3.84,3.649a3.087,3.087,0,0,1,.524,1.369,6.94,6.94,0,0,0-6.181,3.134c-1.221,2.187-.12,4.165,2.03,4.509,2.1.335,6.215-1.343,8.118-4.432,2.447,4.032-.823,12.856-14.651,17.385C195.87,100.187,136.927,63.4,110.524,121.756a110.254,110.254,0,0,1,18.7-4.49c18.532-38.052,85.537-16.377,125.275-33.658C267.453,77.98,270.184,68.645,268.034,64.254Zm-9.392,2.81c-1.078.106-1.954-.911-.7-2.574a5.681,5.681,0,0,1,4.8-2.2C262.531,64.465,260.848,66.851,258.642,67.064Zm-128.2,45.747a5.608,5.608,0,0,1-3.722,3.091,9.267,9.267,0,0,1-2.821.441c-2.316,0-4.447-.877-5.446-2.406a3.145,3.145,0,0,1-.334-2.871,5.6,5.6,0,0,1,3.723-3.082c3.181-1.03,6.889-.15,8.263,1.963A3.142,3.142,0,0,1,130.447,112.811Zm6.18-9.271a4.387,4.387,0,0,1-2.919,2.421,7.207,7.207,0,0,1-2.2.345,5,5,0,0,1-4.223-1.864,2.485,2.485,0,0,1-.261-2.261,4.4,4.4,0,0,1,2.913-2.43c2.527-.8,5.348-.133,6.426,1.524A2.475,2.475,0,0,1,136.627,103.54Zm8.4-6a3.6,3.6,0,0,1-2.38,1.981,5.915,5.915,0,0,1-1.783.276,3.972,3.972,0,0,1-3.364-1.473,1.981,1.981,0,0,1-.207-1.807,3.583,3.583,0,0,1,2.383-1.972c2.025-.648,4.287-.127,5.143,1.19A1.981,1.981,0,0,1,145.028,97.54Zm7.371-3.748a2.692,2.692,0,0,1-1.8,1.475,4.248,4.248,0,0,1-1.315.208,2.974,2.974,0,0,1-2.518-1.12,1.559,1.559,0,0,1-.153-1.421,2.684,2.684,0,0,1,1.779-1.489,3.451,3.451,0,0,1,3.845.911l0,0A1.566,1.566,0,0,1,152.4,93.792Zm6.8-1.853a2.028,2.028,0,0,1-1.354,1.126,3.2,3.2,0,0,1-.97.152,2.2,2.2,0,0,1-1.854-.813,1.187,1.187,0,0,1-.122-1.085,2.041,2.041,0,0,1,1.356-1.126,2.541,2.541,0,0,1,2.825.664A1.181,1.181,0,0,1,159.2,91.94Z" transform="translate(-23.157 -31.835)" fill="#ffebaa" stroke="#ffebaa" stroke-width="0.451"/>
          <path id="Контур_5" data-name="Контур 5" d="M57.942,73.642c2.179-8.85,7.077-10.267,9.352-8.027-.509-2.469-4.194-3.068-7.786-1.021-3.056,1.734-6.49,6.392-8.292,13.783-1.947,8-1.453,30.806-3.9,37.034s-6.491,7.329-10.38,3.9c1.91,2.274,3.984,8.985,3.982,13.362,6.55.1,11.369-4.574,14.214-9.823C60.981,112.088,55.538,83.4,57.942,73.642Z" transform="translate(-23.945 -31.646)" fill="#ffebaa" stroke="#ffebaa" stroke-width="0.451"/>
          <path id="Контур_6" data-name="Контур 6" d="M69.267,84.554c5.8-2.752,8.786-9.8,8.34-17.066-.846-13.959-13.415-24.07-28.023-21.926-28.4,4.168-32.625,40.557-14.937,45.4,4.6,1.254,9.14-2.586,8.641-4.984C37.229,90.957,29.9,82.2,31.835,71.856c3.924-20.938,35.64-25.53,39.373-3.632C72.5,75.8,69.146,80.471,66.057,81.59s-4.033-2.226-2.43-4.307C58.363,79.429,62,88,69.267,84.554Z" transform="translate(-24.083 -31.84)" fill="#ffebaa" stroke="#ffebaa" stroke-width="0.451"/>
          <path id="Контур_7" data-name="Контур 7" d="M251.063,46.183c.568-.152.885-1.174,1.216-1.82a5.252,5.252,0,0,0,3.2.685c2.439-.637,4.289-2.665,4.139-4.547-.148-1.816-1.909-2.957-4.432-2.433a1.444,1.444,0,0,1-.008-.159c-.16-1.957-1.312-2.892-2.6-2.566s-2.218,2.067-2.071,3.875a4.085,4.085,0,0,0,.113.705.127.127,0,0,0-.058.011c-1.147.294-1.962,1.932-1.823,3.653S249.92,46.468,251.063,46.183Z" transform="translate(-21.676 -31.947)" fill="#ffebaa" stroke="#ffebaa" stroke-width="0.451"/>
        </g>
        <g id="Сгруппировать_2" data-name="Сгруппировать 2" transform="translate(248.683 8.52)">
          <path id="Контур_8" data-name="Контур 8" d="M265.619,37.939a1.841,1.841,0,1,1,1.844,1.759A1.784,1.784,0,0,1,265.619,37.939Zm1.844,1.467a1.462,1.462,0,1,0-1.479-1.467A1.44,1.44,0,0,0,267.463,39.405Zm-.384-.45h-.316V36.932h.8c.494,0,.739.177.739.575a.534.534,0,0,1-.543.557l.6.891H268l-.552-.877h-.366Zm.38-1.137c.268,0,.508-.019.508-.329,0-.251-.235-.3-.456-.3h-.433v.627Z" transform="translate(-265.619 -36.19)" fill="#e21234"/>
        </g>
      </g>
    </g>
  </g>
</svg>
