<svg id="receipt_long_black_24dp" xmlns="http://www.w3.org/2000/svg" width="24" height="24" viewBox="0 0 24 24">
  <path id="Контур_177" data-name="Контур 177" d="M0,0H24V24H0Z" fill="none"/>
  <g id="Сгруппировать_837" data-name="Сгруппировать 837">
    <path id="Контур_178" data-name="Контур 178" d="M19.5,3.5,18,2,16.5,3.5,15,2,13.5,3.5,12,2,10.5,3.5,9,2,7.5,3.5,6,2V16H3v3a3,3,0,0,0,3,3H18a3,3,0,0,0,3-3V2ZM15,20H6a1,1,0,0,1-1-1V18H15Zm4-1a1,1,0,0,1-2,0V16H8V5H19Z" fill="#D81E35"/>
    <rect id="Прямоугольник_559" data-name="Прямоугольник 559" width="6" height="2" transform="translate(9 7)" fill="#D81E35"/>
    <rect id="Прямоугольник_560" data-name="Прямоугольник 560" width="2" height="2" transform="translate(16 7)" fill="#D81E35"/>
    <rect id="Прямоугольник_561" data-name="Прямоугольник 561" width="6" height="2" transform="translate(9 10)" fill="#D81E35"/>
    <rect id="Прямоугольник_562" data-name="Прямоугольник 562" width="2" height="2" transform="translate(16 10)" fill="#D81E35"/>
  </g>
</svg>
