<svg xmlns="http://www.w3.org/2000/svg" width="192.259" height="30.053" viewBox="0 0 192.259 30.053">  <g id="group_1505" data-name="group 1505" transform="translate(-1019.956 -4193)">    <path id="star" d="M23.979,9.691a.426.426,0,0,0-.347-.281L15.861,8.323,12.385,1.549a.437.437,0,0,0-.77,0L8.14,8.323.368,9.41a.426.426,0,0,0-.347.281.4.4,0,0,0,.109.423l5.624,5.273L4.426,22.834a.407.407,0,0,0,.171.4.44.44,0,0,0,.452.031L12,19.755l6.951,3.515a.444.444,0,0,0,.453-.031.405.405,0,0,0,.171-.4l-1.327-7.446,5.624-5.274A.4.4,0,0,0,23.979,9.691Z" transform="translate(1024 4195.682)" fill="#ec8622" stroke="rgba(236,134,34,0.27)" stroke-linecap="round" stroke-linejoin="bevel" stroke-width="8"/>    <path id="star-2" data-name="star" d="M23.979,9.691a.426.426,0,0,0-.347-.281L15.861,8.323,12.385,1.549a.437.437,0,0,0-.77,0L8.14,8.323.368,9.41a.426.426,0,0,0-.347.281.4.4,0,0,0,.109.423l5.624,5.273L4.426,22.834a.407.407,0,0,0,.171.4.44.44,0,0,0,.452.031L12,19.755l6.951,3.515a.444.444,0,0,0,.453-.031.405.405,0,0,0,.171-.4l-1.327-7.446,5.624-5.274A.4.4,0,0,0,23.979,9.691Z" transform="translate(1064 4195.682)" fill="#ec8622" stroke="rgba(236,134,34,0.27)" stroke-linecap="round" stroke-linejoin="bevel" stroke-width="8"/>    <path id="star-3" data-name="star" d="M23.979,9.691a.426.426,0,0,0-.347-.281L15.861,8.323,12.385,1.549a.437.437,0,0,0-.77,0L8.14,8.323.368,9.41a.426.426,0,0,0-.347.281.4.4,0,0,0,.109.423l5.624,5.273L4.426,22.834a.407.407,0,0,0,.171.4.44.44,0,0,0,.452.031L12,19.755l6.951,3.515a.444.444,0,0,0,.453-.031.405.405,0,0,0,.171-.4l-1.327-7.446,5.624-5.274A.4.4,0,0,0,23.979,9.691Z" transform="translate(1104 4195.682)" fill="#ec8622" stroke="rgba(236,134,34,0.27)" stroke-linecap="round" stroke-linejoin="bevel" stroke-width="8"/>    <path id="star-4" data-name="star" d="M23.979,9.691a.426.426,0,0,0-.347-.281L15.861,8.323,12.385,1.549a.437.437,0,0,0-.77,0L8.14,8.323.368,9.41a.426.426,0,0,0-.347.281.4.4,0,0,0,.109.423l5.624,5.273L4.426,22.834a.407.407,0,0,0,.171.4.44.44,0,0,0,.452.031L12,19.755l6.951,3.515a.444.444,0,0,0,.453-.031.405.405,0,0,0,.171-.4l-1.327-7.446,5.624-5.274A.4.4,0,0,0,23.979,9.691Z" transform="translate(1144 4195.682)" fill="#ec8622" stroke="rgba(236,134,34,0.27)" stroke-linecap="round" stroke-linejoin="bevel" stroke-width="8"/>    <g id="group_1504" data-name="group 1504" transform="translate(0.17)">      <path id="star-5" data-name="star" d="M23.979,9.691a.426.426,0,0,0-.347-.281L15.861,8.323,12.385,1.549a.437.437,0,0,0-.77,0L8.14,8.323.368,9.41a.426.426,0,0,0-.347.281.4.4,0,0,0,.109.423l5.624,5.273L4.426,22.834a.407.407,0,0,0,.171.4.44.44,0,0,0,.452.031L12,19.755l6.951,3.515a.444.444,0,0,0,.453-.031.405.405,0,0,0,.171-.4l-1.327-7.446,5.624-5.274A.4.4,0,0,0,23.979,9.691Z" transform="translate(1184 4195.682)" fill="#fed455" stroke="rgba(236,134,34,0.27)" stroke-linecap="round" stroke-linejoin="bevel" stroke-width="8"/>      <path id="star-6" data-name="star" d="M23.979,9.691a.426.426,0,0,0-.347-.281L15.861,8.323,12.385,1.549a.437.437,0,0,0-.77,0L8.14,8.323.368,9.41a.426.426,0,0,0-.347.281.4.4,0,0,0,.109.423l5.624,5.273L4.426,22.834a.407.407,0,0,0,.171.4.44.44,0,0,0,.452.031L12,19.755l6.951,3.515a.444.444,0,0,0,.453-.031.405.405,0,0,0,.171-.4l-1.327-7.446,5.624-5.274A.4.4,0,0,0,23.979,9.691Z" transform="translate(1184 4195.682)" fill="#cfc1bc"/>      <path id="star-7" data-name="star" d="M12.1,1.318a.434.434,0,0,0-.388.231l-3.5,6.775L.371,9.41a.429.429,0,0,0-.35.281.4.4,0,0,0,.11.423L5.8,15.388,4.461,22.834a.406.406,0,0,0,.172.4.447.447,0,0,0,.456.031L12.1,19.754C12.1,7.717,12.262,1.318,12.1,1.318Z" transform="translate(1183.83 4195.682)" fill="#ec8622"/>    </g>  </g></svg>