<svg xmlns="http://www.w3.org/2000/svg" width="119.48" height="59.998" viewBox="0 0 119.48 59.998">  <path id="aa_1" data-name="Вычитание 1" d="M-2275.5,19221h-119.48a59.617,59.617,0,0,0,23.331-4.715,60.186,60.186,0,0,0,10.192-5.531,60.438,60.438,0,0,0,8.879-7.326,60.412,60.412,0,0,0,7.326-8.881,60.056,60.056,0,0,0,5.531-10.191A59.622,59.622,0,0,0-2335,19161a59.615,59.615,0,0,0,4.715,23.354,60.059,60.059,0,0,0,5.532,10.191,60.527,60.527,0,0,0,7.327,8.881,60.459,60.459,0,0,0,8.88,7.326,60.192,60.192,0,0,0,10.193,5.531A59.559,59.559,0,0,0-2275.5,19221Z" transform="translate(2394.976 -19161.002)" fill="#613223"/></svg>