<?xml version="1.0" encoding="UTF-8"?>
<!DOCTYPE svg PUBLIC "-//W3C//DTD SVG 1.1//EN" "http://www.w3.org/Graphics/SVG/1.1/DTD/svg11.dtd">
<!-- Creator: CorelDRAW 2020 (64-Bit) -->
<svg xmlns="http://www.w3.org/2000/svg" xml:space="preserve" width="371px" height="371px" version="1.1" style="shape-rendering:geometricPrecision; text-rendering:geometricPrecision; image-rendering:optimizeQuality; fill-rule:evenodd; clip-rule:evenodd"
viewBox="0 0 367.22 367.51"
 xmlns:xlink="http://www.w3.org/1999/xlink"
 xmlns:xodm="http://www.corel.com/coreldraw/odm/2003">
 <defs>
  <style type="text/css">
   <![CDATA[
    .str0 {stroke:#F22F34;stroke-width:109.59;stroke-miterlimit:22.9256;stroke-opacity:0.419608}
    .fil1 {fill:none;fill-rule:nonzero}
    .fil0 {fill:#F22F34;fill-rule:nonzero}
    .fil2 {fill:white;fill-rule:nonzero}
   ]]>
  </style>
 </defs>
 <g id="Capa_x0020_1">
  <metadata id="CorelCorpID_0Corel-Layer"/>
  <path class="fil0" d="M59.22 216.94c-18.43,-68.81 22.25,-139.28 91.06,-157.72 68.81,-18.43 139.28,22.25 157.71,91.06 18.44,68.81 -22.24,139.28 -91.05,157.71 -68.58,19.32 -139.28,-22.24 -157.72,-91.05z"/>
  <path class="fil1 str0" d="M59.22 216.94c-18.43,-68.81 22.25,-139.28 91.06,-157.72 68.81,-18.43 139.28,22.25 157.71,91.06 18.44,68.81 -22.24,139.28 -91.05,157.71 -68.58,19.32 -139.28,-22.24 -157.72,-91.05z"/>
  <polygon class="fil2" points="134.17,162.09 178.01,203.19 282.13,101.81 293.09,115.51 191.71,215.06 191.71,215.06 183.49,222.37 179.84,226.02 167.05,215.06 167.05,215.06 122.3,173.05 "/>
 </g>
</svg>
